<svg width="56" height="56" viewBox="0 0 56 56" fill="none" xmlns="http://www.w3.org/2000/svg">
<g clip-path="url(#clip0_65_3)">
<path d="M56 28C56 43.464 43.464 56 28 56C12.536 56 0 43.464 0 28C0 12.536 12.536 0 28 0C43.464 0 56 12.536 56 28ZM5.96508 28C5.96508 40.1695 15.8305 50.0349 28 50.0349C40.1695 50.0349 50.0349 40.1695 50.0349 28C50.0349 15.8305 40.1695 5.96508 28 5.96508C15.8305 5.96508 5.96508 15.8305 5.96508 28Z" fill="#E5B38D"/>
<path d="M25 18C25 16.3431 26.3431 15 28 15C29.6569 15 31 16.3431 31 18V38C31 39.6569 29.6569 41 28 41C26.3431 41 25 39.6569 25 38V18Z" fill="#E5B38D"/>
<path d="M18 31C16.3431 31 15 29.6569 15 28C15 26.3431 16.3431 25 18 25H38C39.6569 25 41 26.3431 41 28C41 29.6569 39.6569 31 38 31H18Z" fill="#E5B38D"/>
</g>
<defs>
<clipPath id="clip0_65_3">
<rect width="56" height="56" fill="white"/>
</clipPath>
</defs>
</svg>
